<svg width="116" height="110" viewBox="0 0 116 110" fill="none" xmlns="http://www.w3.org/2000/svg">
  <g clip-path="url(#clip0_108_382)">
    <path
      d="M93.8703 66.1834H86.803C85.7337 66.1468 84.6704 66.3571 83.6956 66.7981C82.8223 67.0827 82.0177 67.5454 81.3327 68.1569V56.9304H78.4734V91.6667H81.4621V75.6736C81.4842 73.8755 82.1947 72.1543 83.4474 70.8638C84.7076 69.6191 86.4018 68.9116 88.1733 68.8902H92.4029C93.2786 68.8921 94.1453 69.0675 94.9527 69.4062C95.7602 69.745 96.4925 70.2404 97.1072 70.8638C97.7381 71.4958 98.2381 72.2459 98.5787 73.0712C98.9194 73.8965 99.094 74.7808 99.0925 75.6736V91.5804H102.081V74.3255C102.093 73.2398 101.878 72.1636 101.449 71.1661C101.019 70.1687 100.386 69.2722 99.5888 68.5343C98.8638 67.7507 97.9766 67.1344 96.989 66.7283C96.0014 66.3223 94.9371 66.1363 93.8703 66.1834Z"
      fill="currentColor" />
    <path
      d="M59.6778 74.9402L69.6906 92.4647L59.6778 110H39.7708L29.7687 92.4647L39.7708 74.9402H59.6778Z"
      fill="currentColor" />
    <path
      d="M59.6778 32.6334L69.6906 50.1579L59.6778 67.6932H39.7708L29.7687 50.1579L39.7708 32.6334H59.6778Z"
      fill="currentColor" />
    <path
      d="M24.4387 56.8118L32.5957 71.3059L24.4387 85.8216H8.15701L0 71.3059L8.15701 56.8118H24.4387Z"
      fill="currentColor" />
    <path d="M103.009 0L115.957 22.949L103.009 45.9304H76.9845L64.0369 22.949L76.9845 0H103.009Z"
      fill="currentColor" />
  </g>
  <defs>
    <clipPath id="clip0_108_382">
      <rect width="116" height="110" fill="white" />
    </clipPath>
  </defs>
</svg>