<svg width="1104" height="1104" viewBox="0 0 1104 1104" fill="none" xmlns="http://www.w3.org/2000/svg">
<g filter="url(#filter0_d_323_2)">
<path d="M40 248C40 122.079 142.079 20 268 20H836C961.921 20 1064 122.079 1064 248V816C1064 941.921 961.921 1044 836 1044H268C142.079 1044 40 941.921 40 816V248Z" fill="currentColor"/>
</g>
<mask id="mask0_323_2" style="mask-type:alpha" maskUnits="userSpaceOnUse" x="196" y="182" width="677" height="677">
<path d="M225.52 344.671C213.768 332.92 194.487 339.737 196.094 356.278C199.543 391.766 214.858 426.319 242.04 453.5C285.304 496.761 347.247 509.962 401.91 493.103C403.653 495.914 405.691 498.597 408.025 501.108L438.006 533.373L315.857 655.515C293.442 677.928 276.59 705.281 266.652 735.381L236.85 825.64C230.317 845.425 249.104 864.21 268.89 857.678L359.155 827.878C389.256 817.94 416.61 801.089 439.025 778.675L556.654 661.054L713.191 829.509C748.77 867.797 809.025 868.902 845.984 831.945C882.943 794.988 881.838 734.737 843.548 699.16L675.082 542.633L847.489 370.237C881.501 336.227 881.501 281.086 847.489 247.076C813.477 213.066 758.333 213.066 724.321 247.076L547.394 423.993L515.127 394.013C512.615 391.679 509.932 389.642 507.121 387.899C523.982 333.239 510.781 271.299 467.516 228.037C440.335 200.858 405.781 185.543 370.291 182.094C353.749 180.487 346.931 199.767 358.683 211.518L419.977 272.809C425.104 277.935 427.106 285.407 425.23 292.409L403.154 374.792C401.277 381.794 395.807 387.264 388.805 389.14L306.417 411.214C299.414 413.091 291.942 411.089 286.816 405.963L225.52 344.671Z" fill="black"/>
</mask>
<g mask="url(#mask0_323_2)">
<g filter="url(#filter1_i_323_2)">
<path d="M847.484 247.478C881.505 281.465 881.505 336.57 847.484 370.558L438.901 778.728C416.479 801.127 389.117 817.967 359.007 827.898L268.715 857.679C248.924 864.207 230.132 845.433 236.666 825.662L266.477 735.462C276.418 705.382 293.275 678.047 315.697 655.648L724.28 247.478C758.301 213.49 813.462 213.49 847.484 247.478Z" fill="currentColor"/>
</g>
<mask id="mask1_323_2" style="mask-type:alpha" maskUnits="userSpaceOnUse" x="235" y="221" width="638" height="638">
<path d="M847.235 247.272C881.234 281.271 881.234 336.394 847.235 370.393L438.927 778.701C416.52 801.107 389.176 817.953 359.087 827.888L268.856 857.679C249.078 864.209 230.298 845.429 236.828 825.651L266.619 735.42C276.554 705.33 293.399 677.986 315.806 655.58L724.114 247.272C758.112 213.273 813.236 213.273 847.235 247.272Z" fill="currentColor"/>
</mask>
<g mask="url(#mask1_323_2)">
<g filter="url(#filter2_d_323_2)">
<path d="M780.797 253.489C757.31 230.002 726.186 244.667 717.363 253.489C710.566 260.286 318.196 617.753 276.083 700.976C274.029 705.034 277.908 706.738 281.472 703.914C308.356 682.614 337.32 705.54 339.93 740.704C340.283 745.454 346.482 748.35 349.861 744.994L780.797 316.922C787.362 310.357 804.284 276.976 780.797 253.489Z" fill="currentColor"/>
</g>
</g>
<g filter="url(#filter3_d_323_2)">
<path d="M196.094 356.288C194.487 339.746 213.768 332.929 225.52 344.681L286.816 405.976C291.942 411.102 299.414 413.104 306.417 411.228L388.805 389.152C395.807 387.276 401.277 381.806 403.154 374.803L425.23 292.416C427.106 285.413 425.104 277.941 419.977 272.814L358.683 211.52C346.931 199.768 353.749 180.487 370.291 182.094C405.781 185.544 440.335 200.859 467.516 228.04C510.781 271.305 523.982 333.248 507.121 387.911C509.932 389.654 512.615 391.692 515.127 394.025L843.548 699.191C881.838 734.77 882.943 795.025 845.984 831.984C809.025 868.943 748.77 867.838 713.191 829.548L408.025 501.127C405.691 498.616 403.653 495.932 401.91 493.121C347.247 509.982 285.304 496.78 242.04 453.516C214.858 426.334 199.543 391.779 196.094 356.288Z" fill="currentColor"/>
</g>
</g>
<defs>
<filter id="filter0_d_323_2" x="0" y="0" width="1104" height="1104" filterUnits="userSpaceOnUse" color-interpolation-filters="sRGB">
<feFlood flood-opacity="0" result="BackgroundImageFix"/>
<feColorMatrix in="SourceAlpha" type="matrix" values="0 0 0 0 0 0 0 0 0 0 0 0 0 0 0 0 0 0 127 0" result="hardAlpha"/>
<feOffset dy="20"/>
<feGaussianBlur stdDeviation="20"/>
<feColorMatrix type="matrix" values="0 0 0 0 0 0 0 0 0 0 0 0 0 0 0 0 0 0 0.15 0"/>
<feBlend mode="normal" in2="BackgroundImageFix" result="effect1_dropShadow_323_2"/>
<feBlend mode="normal" in="SourceGraphic" in2="effect1_dropShadow_323_2" result="shape"/>
</filter>
<filter id="filter1_i_323_2" x="235.344" y="221.987" width="659.549" height="658.906" filterUnits="userSpaceOnUse" color-interpolation-filters="sRGB">
<feFlood flood-opacity="0" result="BackgroundImageFix"/>
<feBlend mode="normal" in="SourceGraphic" in2="BackgroundImageFix" result="shape"/>
<feColorMatrix in="SourceAlpha" type="matrix" values="0 0 0 0 0 0 0 0 0 0 0 0 0 0 0 0 0 0 127 0" result="hardAlpha"/>
<feOffset dx="21.8931" dy="21.8931"/>
<feGaussianBlur stdDeviation="38.313"/>
<feComposite in2="hardAlpha" operator="arithmetic" k2="-1" k3="1"/>
<feColorMatrix type="matrix" values="0 0 0 0 0.0431076 0 0 0 0 0.210913 0 0 0 0 0.795833 0 0 0 1 0"/>
<feBlend mode="normal" in2="shape" result="effect1_innerShadow_323_2"/>
</filter>
<filter id="filter2_d_323_2" x="235.512" y="184.802" width="637.341" height="625.643" filterUnits="userSpaceOnUse" color-interpolation-filters="sRGB">
<feFlood flood-opacity="0" result="BackgroundImageFix"/>
<feColorMatrix in="SourceAlpha" type="matrix" values="0 0 0 0 0 0 0 0 0 0 0 0 0 0 0 0 0 0 127 0" result="hardAlpha"/>
<feOffset dx="20" dy="4"/>
<feGaussianBlur stdDeviation="30"/>
<feComposite in2="hardAlpha" operator="out"/>
<feColorMatrix type="matrix" values="0 0 0 0 0 0 0 0 0 0 0 0 0 0 0 0 0 0 0.4 0"/>
<feBlend mode="normal" in2="BackgroundImageFix" result="effect1_dropShadow_323_2"/>
<feBlend mode="normal" in="SourceGraphic" in2="effect1_dropShadow_323_2" result="shape"/>
</filter>
<filter id="filter3_d_323_2" x="136" y="142" width="797" height="797" filterUnits="userSpaceOnUse" color-interpolation-filters="sRGB">
<feFlood flood-opacity="0" result="BackgroundImageFix"/>
<feColorMatrix in="SourceAlpha" type="matrix" values="0 0 0 0 0 0 0 0 0 0 0 0 0 0 0 0 0 0 127 0" result="hardAlpha"/>
<feOffset dy="20"/>
<feGaussianBlur stdDeviation="30"/>
<feComposite in2="hardAlpha" operator="out"/>
<feColorMatrix type="matrix" values="0 0 0 0 0 0 0 0 0 0.0155026 0 0 0 0 0.387565 0 0 0 0.4 0"/>
<feBlend mode="normal" in2="BackgroundImageFix" result="effect1_dropShadow_323_2"/>
<feBlend mode="normal" in="SourceGraphic" in2="effect1_dropShadow_323_2" result="shape"/>
</filter>
</defs>
</svg>

