<svg version="1.0" xmlns="http://www.w3.org/2000/svg" viewBox="0 0 400.000000 400.000000" preserveAspectRatio="xMidYMid meet">

<g transform="translate(0.000000,400.000000) scale(0.100000,-0.100000)" fill="currentColor" stroke="none">
<path d="M823 2423 c3 -10 50 -215 104 -455 l98 -438 52 0 c83 0 143 33 165
90 5 14 40 168 77 343 38 175 71 321 75 324 3 4 10 2 15 -3 5 -5 41 -156 79
-336 75 -350 83 -372 146 -402 27 -13 146 -24 146 -13 0 1 45 200 100 442 55
241 100 445 100 452 0 9 -15 13 -49 13 -54 0 -92 -23 -115 -68 -7 -15 -39
-145 -72 -289 -32 -145 -61 -263 -64 -263 -4 0 -31 116 -60 257 -36 170 -61
267 -75 286 -33 49 -69 70 -129 75 -65 5 -125 -23 -157 -74 -16 -26 -128 -504
-129 -548 0 -32 -17 31 -71 269 -33 148 -67 281 -75 296 -19 38 -62 59 -119
59 -39 0 -46 -3 -42 -17z"></path>
<path d="M2126 2409 l-26 -31 0 -424 0 -424 40 0 c21 0 51 5 65 12 54 25 55
32 55 483 l0 415 -54 0 c-48 0 -57 -3 -80 -31z"></path>
<path d="M2526 2214 c84 -125 150 -232 147 -238 -4 -6 -70 -103 -146 -216 -77
-112 -141 -210 -144 -217 -7 -18 132 -18 167 0 14 7 66 73 117 147 51 73 97
138 102 143 5 5 47 -48 100 -126 50 -75 103 -145 117 -156 22 -17 41 -21 105
-21 44 0 79 2 79 5 0 3 -67 105 -150 226 -82 122 -150 223 -150 225 0 1 68
102 150 223 83 122 150 223 150 226 0 10 -149 5 -172 -6 -13 -5 -68 -75 -122
-154 -54 -80 -101 -143 -105 -141 -4 3 -47 64 -96 136 -48 72 -100 140 -113
151 -20 15 -41 19 -108 19 l-82 0 154 -226z"></path>
</g>
</svg>