<?xml version="1.0" encoding="UTF-8" standalone="no"?>
<!DOCTYPE svg PUBLIC "-//W3C//DTD SVG 1.1//EN" "http://www.w3.org/Graphics/SVG/1.1/DTD/svg11.dtd">
<svg xmlns="http://www.w3.org/2000/svg" xmlns:xlink="http://www.w3.org/1999/xlink" version="1.1"
	width="1080" height="1080" viewBox="0 0 1080 1080" xml:space="preserve">
<desc>Created with Fabric.js 5.2.4</desc>
<defs>
</defs>
<rect x="0" y="0" width="100%" height="100%" fill="transparent"></rect>
<g transform="matrix(1 0 0 1 540 540)" id="8bd1325b-6f95-4ff2-93f6-fbfaffbd41d0"  >
<rect style="stroke: none; stroke-width: 1; stroke-dasharray: none; stroke-linecap: butt; stroke-dashoffset: 0; stroke-linejoin: miter; stroke-miterlimit: 4; fill: rgb(255,255,255); fill-rule: nonzero; opacity: 1; visibility: hidden;" vector-effect="non-scaling-stroke"  x="-540" y="-540" rx="0" ry="0" width="1080" height="1080" />
</g>
<g transform="matrix(1 0 0 1 540 540)" id="983c6776-0d2f-47f1-94b2-3beeaebd5099"  >
</g>
<g transform="matrix(5.73 0 0 5.73 562.95 540)"  >
<g style="" vector-effect="non-scaling-stroke"   >
		<g transform="matrix(1 0 0 1 -47.45 64.2)"  >
<rect style="stroke: none; stroke-width: 1; stroke-dasharray: none; stroke-linecap: butt; stroke-dashoffset: 0; stroke-linejoin: miter; stroke-miterlimit: 4; fill: currentColor; fill-rule: nonzero; opacity: 1;" vector-effect="non-scaling-stroke"  x="-12.85" y="-23.3" rx="0" ry="0" width="25.7" height="46.6" />
</g>
		<g transform="matrix(1 0 0 1 0 -34.45)"  >
<path style="stroke: none; stroke-width: 1; stroke-dasharray: none; stroke-linecap: butt; stroke-dashoffset: 0; stroke-linejoin: miter; stroke-miterlimit: 4; fill: currentColor; fill-rule: nonzero; opacity: 1;" vector-effect="non-scaling-stroke"  transform=" translate(-60.3, -53.05)" d="M 96.5 8.6 C 82.8 1.2 73.2 0 50.7 0 L 0 0 L 0 106.1 L 25.7 106.1 L 29 106.1 L 50.5 106.1 C 70.5 106.1 85.5 104.89999999999999 98.7 96.1 C 113.10000000000001 86.6 120.6 70.69999999999999 120.6 52.3 C 120.6 32.5 111.4 16.6 96.5 8.6 z M 56.4 83.9 L 25.7 83.9 L 25.7 22.7 L 54.7 22.5 C 81.1 22.3 94.30000000000001 31.5 94.30000000000001 52.6 C 94.3 75.3 77.9 83.9 56.4 83.9 z" stroke-linecap="round" />
</g>
</g>
</g>
</svg>