<svg id="Layer_1" xmlns="http://www.w3.org/2000/svg" version="1.1" viewBox="0 0 1080 1080"
  fill="currentColor">
  <path
    d="M943.45,943.21l76.8-299.53-103.68-103.68,103.68-104.16-76.8-299.53-299.53-76.8-103.68,104.16-104.16-103.68-299.53,76.8L59.75,436.32l104.16,103.68-104.16,104.16,76.8,299.53,299.53,76.8,104.16-104.16,103.68,103.68,299.53-76.8ZM599.28,856.33l98.88-98.88,125.76,125.76-157.44,40.32-67.2-67.2h0ZM440.88,381.12l98.88-98.88,98.88,98.88-98.88,98.88-98.88-98.88h0ZM480.72,539.52l-98.88,98.88-98.88-98.88,98.88-98.88,98.88,98.88ZM698.16,440.64l98.88,98.88-98.88,98.88-98.88-98.88,98.88-98.88ZM639.12,697.92l-98.88,98.88-98.88-98.88,98.88-98.88,98.88,98.88ZM413.04,923.53l-157.44-40.32,125.76-125.76,98.88,98.88-67.2,67.2h0ZM223.43,599.04l98.88,98.88-125.76,125.76-40.32-157.44,67.2-67.2ZM196.07,255.36l125.76,125.76-98.4,99.36-67.2-67.2,39.84-157.92ZM480.72,223.19l-98.88,98.88-125.76-125.76,157.44-40.32,67.2,67.2ZM666.48,155.51l157.44,40.32-125.76,125.76-98.88-98.4,67.2-67.68ZM856.57,480.48l-98.88-98.88,125.76-125.76,40.32,157.44-67.2,67.2h0ZM883.45,824.16l-125.76-125.76,98.88-98.88,67.2,67.2-40.32,157.44h0Z"></path>
</svg>