<svg width="192" height="192" viewBox="0 0 192 192" fill="none" xmlns="http://www.w3.org/2000/svg">
<g clip-path="url(#clip0_10_36)">
<path d="M181.801 119.196L175.017 107.701L142.168 127.164L178.644 81.9907L184.165 78.8302L182.799 76.8457L185.31 73.744L173.798 64.4242L168.526 70.951L62.168 131.456L101.493 85.4746L174.738 46.4314L167.777 33.3484L127.88 54.6046L147.528 31.6432L136.28 22L92.0652 73.6999L48.1445 97.117L81.7715 53.899L102.829 43.2415L96.1474 30.0115L34.7671 61.0873L51.5072 39.5371L39.8185 30.4378L4.48816 75.9049L5.03147 76.3312L11.6394 89.3995L50.8024 69.5692L15.1049 115.463L20.9492 120.005L24.4294 126.561L65.6776 104.57L20.2591 157.681L31.5072 167.309L33.7686 164.664L143.328 102.144L106.955 147.185L107.542 147.67L107.484 147.7L115.031 160.459L163.401 131.809L144.782 161.033L157.263 169L186.926 122.46L181.801 119.196Z" fill="currentColor"/>
</g>
<defs>
<clipPath id="clip0_10_36">
<rect width="182.438" height="147" fill="currentColor" transform="translate(4.48816 22)"/>
</clipPath>
</defs>
</svg>
