<svg width="205" height="190" viewBox="0 0 205 190" fill="none" xmlns="http://www.w3.org/2000/svg">
<path d="M196.416 158.896C193.808 158.896 192 157.056 192 154.448C192 151.856 193.824 150 196.416 150C199.008 150 200.832 151.856 200.832 154.448C200.832 157.056 199.024 158.896 196.416 158.896ZM196.416 158.112C198.528 158.112 199.952 156.56 199.952 154.448C199.952 152.336 198.528 150.8 196.416 150.8C194.304 150.8 192.88 152.336 192.88 154.448C192.88 156.56 194.304 158.112 196.416 158.112ZM194.944 156.64V152.192H196.72C197.648 152.192 198.128 152.72 198.128 153.504C198.128 154.224 197.648 154.736 196.896 154.736H196.864L198.4 156.624V156.64H197.344L195.792 154.688H195.776V156.64H194.944ZM195.776 154.144H196.608C197.04 154.144 197.28 153.888 197.28 153.52C197.28 153.168 197.024 152.928 196.608 152.928H195.776V154.144Z" fill="currentColor"/>
<path d="M158.184 2.16438C166.564 -2.6797 175.59 1.19557 182.359 7.97729C189.45 15.082 192.351 22.8325 187.839 31.5518C186.227 34.7812 167.209 67.721 161.407 77.0863C158.184 82.2533 156.572 88.7121 156.572 94.8479C156.572 100.984 158.184 107.443 161.407 112.933C167.209 121.975 186.227 155.238 187.839 158.467C192.351 167.509 189.128 174.291 182.681 181.396C175.267 188.823 167.854 192.698 158.828 187.854C155.605 185.917 65.3511 133.924 65.3511 133.924C66.9627 144.581 72.7648 154.269 80.1785 160.082C79.2115 160.405 34.5761 186.232 31.5058 187.854C23.0444 192.326 15.3286 189.336 8.62001 183.01C1.04465 175.867 -2.66173 167.509 2.1733 158.79C3.78498 155.56 22.8028 122.298 28.2825 113.255C31.5058 107.765 33.4398 101.63 33.4398 95.1709C33.4398 88.7121 31.5058 82.5762 28.2825 77.4092C22.8028 67.721 3.78498 34.1354 2.1733 31.2289C-2.66173 22.5096 1.22016 13.1436 7.97534 7.00847C15.6327 0.0538926 22.8028 -2.03382 31.5058 2.16438C34.0845 3.1332 124.016 56.4182 124.016 56.4182C123.049 46.0841 117.892 36.7189 109.511 30.2601C110.156 29.9372 154.96 3.45614 158.184 2.16438ZM98.2293 110.995L111.123 98.0773C112.734 96.4626 112.734 93.8791 111.123 91.9415L98.2293 79.0239C96.2953 77.0863 93.7166 77.0863 91.7826 79.0239L78.8892 91.9415C77.2775 93.5562 77.2775 96.4626 78.8892 98.0773L91.7826 110.995C93.3942 112.61 96.2953 112.61 98.2293 110.995Z" fill="currentColor"/>
</svg>
