<svg width="108" height="49" viewBox="0 0 108 49" fill="none" xmlns="http://www.w3.org/2000/svg">
<path d="M29.6881 10.8457C29.2898 10.7342 28.873 10.6226 28.4378 10.5164C28.5752 11.0368 28.6513 11.5718 28.6646 12.1102V12.4927L26.8446 17.4282C27.7678 25.9736 27.3167 27.1398 27.169 27.5223C26.9343 28.1306 26.3065 29.1161 25.254 30.5505L26.288 40.1718L30.0494 37.457C30.2029 37.3463 30.328 37.2004 30.4142 37.0313C30.5004 36.8622 30.5454 36.6749 30.5453 36.4848V11.9933C30.5443 11.7345 30.4603 11.483 30.3058 11.2762C30.1514 11.0694 29.9347 10.9184 29.6881 10.8457V10.8457Z" fill="currentColor"/>
<path d="M30.5453 36.4875C30.5454 36.6775 30.5004 36.8649 30.4142 37.034C30.328 37.2031 30.2029 37.349 30.0494 37.4597L26.288 40.1745L25.254 30.5532C26.3091 29.1241 26.9343 28.1333 27.169 27.525C27.3167 27.1424 27.7678 25.9763 26.8446 17.4308L28.6646 12.4954V12.1128C28.6513 11.5745 28.5752 11.0395 28.4378 10.519C28.873 10.6253 29.2898 10.7369 29.6881 10.8484C29.9351 10.9213 30.1521 11.0727 30.3066 11.28C30.4612 11.4873 30.5449 11.7394 30.5453 11.9986V36.4875Z" fill="currentColor"/>
<path d="M12.1863 11.3505C14.2016 10.7573 16.3434 10.7573 18.3587 11.3505L18.5934 10.9627L18.8572 9.16436C17.9577 9.12186 16.4067 9.05811 15.3015 9.05811C14.096 9.05811 12.8906 9.09264 11.7036 9.15639L11.9674 10.9627L12.1863 11.3505Z" fill="currentColor"/>
<path d="M15.2936 9.06079C16.3989 9.06079 17.9499 9.12455 18.8493 9.16705L18.5856 10.9654L18.3508 11.3532C16.3355 10.76 14.1937 10.76 12.1785 11.3532L11.9437 10.9681L11.6799 9.16173C12.8827 9.09532 14.0882 9.06079 15.2936 9.06079Z" fill="currentColor"/>
<path d="M3.70073 17.4308L1.88596 12.498V12.1128C1.89919 11.5746 1.97443 11.0398 2.11017 10.519C1.67758 10.6253 1.25818 10.7369 0.862517 10.8484C0.615259 10.9209 0.398021 11.0722 0.243438 11.2796C0.0888543 11.487 0.00527281 11.7393 0.00524908 11.9986V36.4875C0.00519177 36.6775 0.0501517 36.8649 0.136396 37.034C0.22264 37.2031 0.347683 37.349 0.501147 37.4597L4.2784 40.1931L5.31503 30.5824C4.25993 29.1374 3.61896 28.1386 3.38156 27.525C3.22858 27.1398 2.77752 25.9737 3.70073 17.4308Z" fill="currentColor"/>
<path d="M4.27842 40.1931L0.495894 37.4623C0.34243 37.3517 0.217387 37.2057 0.131143 37.0366C0.0448986 36.8676 -5.72526e-05 36.6802 5.47205e-08 36.4901V11.9986C2.37898e-05 11.7393 0.0836052 11.487 0.238188 11.2796C0.392772 11.0722 0.610009 10.9209 0.857267 10.8484C1.25293 10.7369 1.67233 10.6253 2.10492 10.519C1.96917 11.0398 1.89393 11.5746 1.88071 12.1128V12.498L3.70076 17.4308C2.77755 25.9737 3.2286 27.1398 3.37631 27.525C3.61371 28.1386 4.24677 29.1374 5.30978 30.5824L4.27842 40.1931Z" fill="currentColor"/>
<path d="M25.7123 26.9565C26.0077 26.1941 25.8389 22.5895 25.2586 17.3113V17.2316L27.105 12.2138V12.1129C27.105 9.92404 24.2905 4.0668 22.6208 0.956219L22.1883 0.159316C22.162 0.110132 22.1209 0.0705487 22.071 0.0461972C22.0211 0.0218457 21.9648 0.0139612 21.9102 0.0236692C21.8556 0.0333772 21.8054 0.060187 21.7667 0.100276C21.7281 0.140365 21.703 0.191693 21.695 0.246971L20.086 11.5046L19.0546 13.2126L18.7908 13.1249C17.6513 12.7293 16.4585 12.5107 15.2536 12.4768C14.0525 12.5054 12.8633 12.7241 11.7296 13.1249L11.4658 13.2126L10.4503 11.5046L8.84654 0.225724C8.83928 0.169606 8.81442 0.117286 8.77557 0.076394C8.73673 0.0355016 8.68593 0.00816903 8.63058 -0.00161504C8.57523 -0.0113991 8.51822 -0.00312518 8.46787 0.0219992C8.41751 0.0471237 8.37644 0.0877858 8.35064 0.13806L7.92069 0.934963C6.25627 4.05085 3.43652 9.90809 3.43652 12.0916V12.1926L5.28295 17.2104V17.2901C4.70264 22.5682 4.53383 26.1729 4.82925 26.9353C5.09303 27.6179 6.14812 29.0816 7.02386 30.2477L5.7551 42.0552L7.01858 42.9663L7.96553 43.649L14.1959 48.1621C14.5094 48.3881 14.8852 48.5097 15.2708 48.5097C15.6563 48.5097 16.0322 48.3881 16.3457 48.1621L24.0426 42.6157L24.8102 42.0605L23.5414 30.2424C24.4145 29.0816 25.4511 27.6365 25.7123 26.9565ZM22.6077 7.29957L22.8081 5.8917C22.8154 5.84699 22.8364 5.80572 22.8683 5.77376C22.9002 5.7418 22.9413 5.72079 22.9857 5.71372C23.0301 5.70666 23.0756 5.7139 23.1157 5.73441C23.1559 5.75492 23.1885 5.78766 23.2091 5.82795C24.2299 7.97162 25.2138 10.3198 25.3193 11.393C25.3215 11.4246 25.3171 11.4563 25.3061 11.486L24.8128 12.8141C24.7993 12.8515 24.7756 12.8844 24.7444 12.9089C24.7133 12.9334 24.6759 12.9485 24.6366 12.9527C24.5973 12.9569 24.5576 12.9498 24.522 12.9323C24.4865 12.9149 24.4566 12.8877 24.4356 12.854C23.2091 10.9095 22.729 8.14163 22.6129 7.35269C22.609 7.33437 22.6072 7.31565 22.6077 7.29691V7.29957ZM17.712 21.1365C18.2765 20.5733 19.2947 19.7897 20.574 19.7897C22.2779 19.7897 21.2967 21.1019 20.9643 21.4951C20.9396 21.5242 20.9088 21.5476 20.8742 21.5637C20.8396 21.5797 20.802 21.588 20.7639 21.588H17.8966C17.845 21.5873 17.7947 21.5713 17.752 21.5421C17.7093 21.5129 17.6761 21.4716 17.6564 21.4236C17.6368 21.3755 17.6316 21.3227 17.6414 21.2716C17.6513 21.2206 17.6759 21.1736 17.712 21.1365ZM19.1786 23.575C19.2219 23.6846 19.2937 23.7805 19.3866 23.8525C19.4794 23.9245 19.5898 23.9699 19.7061 23.9841C19.871 24.0074 20.0386 23.9674 20.1755 23.8719C20.3124 23.7764 20.4085 23.6324 20.4447 23.4687C20.3488 23.4672 20.2566 23.4314 20.1846 23.3676C20.1126 23.3038 20.0655 23.2163 20.0517 23.1207C20.043 23.0585 20.049 22.995 20.0691 22.9355C20.0893 22.876 20.1231 22.822 20.1677 22.7781L20.1493 22.7621H21.302V22.8206C21.3085 23.0235 21.2742 23.2256 21.2011 23.4148C21.1281 23.604 21.0179 23.7764 20.877 23.9216C20.7362 24.0668 20.5676 24.1818 20.3815 24.2598C20.1954 24.3377 19.9955 24.377 19.794 24.3752C19.5924 24.3734 19.3933 24.3306 19.2085 24.2494C19.0238 24.1681 18.8573 24.0501 18.719 23.9024C18.5807 23.7547 18.4735 23.5804 18.4038 23.3899C18.3341 23.1995 18.3034 22.9968 18.3134 22.794V22.7621H19.4503C19.3163 22.843 19.2151 22.9689 19.1644 23.1176C19.1137 23.2664 19.1169 23.4284 19.1733 23.575H19.1786ZM9.98077 19.7897C11.2654 19.7897 12.2782 20.5733 12.8427 21.1365C12.8792 21.1739 12.9038 21.2214 12.9135 21.2729C12.9232 21.3245 12.9176 21.3777 12.8972 21.426C12.8769 21.4743 12.8429 21.5155 12.7994 21.5443C12.7559 21.5731 12.7049 21.5884 12.6528 21.588H9.79877C9.76067 21.588 9.72302 21.5797 9.68841 21.5637C9.65381 21.5476 9.62306 21.5242 9.5983 21.4951C9.25275 21.1019 8.27151 19.7897 9.97549 19.7897H9.98077ZM10.5083 23.1207C10.4923 23.2144 10.4442 23.2994 10.3724 23.361C10.3006 23.4227 10.2096 23.457 10.1153 23.4581C10.1474 23.6251 10.242 23.7732 10.3794 23.8721C10.5168 23.9709 10.6866 24.0129 10.8539 23.9894C10.9614 23.975 11.0636 23.9333 11.1508 23.8682C11.238 23.8032 11.3074 23.7169 11.3524 23.6175C11.4203 23.47 11.4326 23.3027 11.3869 23.1468C11.3413 22.9908 11.2409 22.857 11.1044 22.7701H12.2097C12.2179 22.7707 12.2256 22.7743 12.2314 22.7801C12.2372 22.786 12.2407 22.7937 12.2413 22.802C12.2514 23.0047 12.2206 23.2074 12.1509 23.3979C12.0812 23.5884 11.974 23.7627 11.8357 23.9104C11.6974 24.0581 11.5309 24.1761 11.3462 24.2573C11.1615 24.3386 10.9623 24.3814 10.7608 24.3832C10.5592 24.385 10.3594 24.3457 10.1732 24.2678C9.98713 24.1898 9.81858 24.0748 9.67772 23.9296C9.53687 23.7844 9.42661 23.612 9.35358 23.4228C9.28055 23.2336 9.24625 23.0314 9.25275 22.8286V22.7701H10.4054L10.387 22.786C10.4314 22.8286 10.4655 22.881 10.4866 22.9391C10.5076 22.9972 10.5151 23.0593 10.5083 23.1207V23.1207ZM6.15076 12.8593C6.12941 12.8929 6.0992 12.9199 6.06351 12.9372C6.02782 12.9545 5.98805 12.9615 5.94864 12.9574C5.90923 12.9532 5.87175 12.9381 5.84036 12.9138C5.80898 12.8894 5.78494 12.8568 5.77093 12.8195L5.28031 11.4913C5.26808 11.4619 5.26354 11.4299 5.26712 11.3983C5.36735 10.3358 6.35123 7.97693 7.37732 5.83326C7.39721 5.79249 7.42955 5.75922 7.4696 5.73832C7.50964 5.71741 7.55528 5.70998 7.59983 5.71711C7.64437 5.72424 7.68548 5.74556 7.71711 5.77794C7.74875 5.81031 7.76925 5.85205 7.77561 5.89702L7.97608 7.30488C7.97871 7.32516 7.97871 7.3457 7.97608 7.36598C7.85475 8.14694 7.37468 10.9149 6.15076 12.8593ZM9.8779 36.6601C9.0391 34.3465 9.02854 31.1084 9.02854 30.9703V30.7498L8.89138 30.5771C8.53001 30.1282 8.10006 29.573 7.65955 28.9833C7.63336 28.9491 7.61586 28.909 7.60854 28.8664C7.60123 28.8238 7.60433 28.7801 7.61758 28.739C7.63083 28.698 7.65383 28.6608 7.68459 28.6306C7.71534 28.6005 7.75292 28.5784 7.79408 28.5662L10.0546 27.9022C10.1026 27.888 10.1456 27.8603 10.1786 27.8225L12.3363 25.3441C12.3709 25.3044 12.4165 25.276 12.4673 25.2625C12.5181 25.2491 12.5717 25.2512 12.6213 25.2686C12.6708 25.286 12.7141 25.3179 12.7456 25.3602C12.777 25.4025 12.7953 25.4534 12.7979 25.5062L13.1751 32.6092C13.1772 32.667 13.1605 32.7239 13.1276 32.7712C12.9772 32.9944 12.5473 33.6691 12.5473 34.0835C12.5473 34.6148 13.3254 35.3107 14.093 35.8659C14.1016 35.8433 14.1113 35.8211 14.122 35.7995C14.3858 35.316 14.7419 35.2284 14.9134 35.6003C14.9719 35.875 14.9923 36.1566 14.974 36.437H14.9872V37.0905C14.9874 37.1309 14.9784 37.1709 14.9608 37.2073C14.821 37.4916 14.1431 38.7082 12.7003 38.7082C12.0699 38.7268 10.5558 38.5249 9.8779 36.6601V36.6601ZM16.3087 39.3563C16.3307 39.3559 16.3522 39.3624 16.3703 39.3749C16.3884 39.3874 16.4022 39.4053 16.4097 39.426C16.4173 39.4468 16.4182 39.4694 16.4124 39.4907C16.4066 39.512 16.3943 39.531 16.3773 39.5449C16.0601 39.7896 15.6717 39.9222 15.2721 39.9222C14.8725 39.9222 14.4841 39.7896 14.1669 39.5449C14.15 39.5311 14.1379 39.5124 14.132 39.4913C14.1261 39.4703 14.1268 39.4479 14.134 39.4273C14.1412 39.4067 14.1546 39.3888 14.1723 39.3761C14.19 39.3634 14.2111 39.3565 14.2328 39.3563H16.3087ZM18.2369 40.1346C17.9486 40.6741 17.5206 41.1249 16.9984 41.4391C16.4761 41.7533 15.8791 41.9192 15.2708 41.9192C14.6624 41.9192 14.0654 41.7533 13.5432 41.4391C13.0209 41.1249 12.5929 40.6741 12.3046 40.1346C12.2818 40.0929 12.2706 40.0458 12.2721 39.9982C12.2736 39.9507 12.2877 39.9044 12.3131 39.8642C12.3384 39.824 12.374 39.7914 12.4161 39.7698C12.4583 39.7482 12.5054 39.7385 12.5526 39.7415H12.7108C12.8777 39.7427 13.0442 39.724 13.2067 39.6857C13.2579 39.6732 13.3116 39.6763 13.361 39.6948C13.4103 39.7133 13.4531 39.7462 13.4837 39.7893C13.6861 40.0782 13.9544 40.3139 14.2661 40.4765C14.5778 40.6392 14.9237 40.7241 15.2747 40.7241C15.6258 40.7241 15.9717 40.6392 16.2834 40.4765C16.595 40.3139 16.8634 40.0782 17.0658 39.7893C17.0964 39.7462 17.1391 39.7133 17.1885 39.6948C17.2378 39.6763 17.2916 39.6732 17.3427 39.6857C17.5154 39.7276 17.6926 39.7482 17.8703 39.7468H17.9942C18.0405 39.7448 18.0864 39.7551 18.1274 39.7767C18.1684 39.7982 18.2031 39.8302 18.2279 39.8695C18.2528 39.9088 18.2669 39.954 18.269 40.0005C18.271 40.047 18.2609 40.0933 18.2396 40.1346H18.2369ZM22.9189 28.9939C22.481 29.573 22.0485 30.1282 21.6871 30.5877L21.5499 30.7604V30.9809C21.5499 31.119 21.5499 34.3571 20.7006 36.6708C20.0253 38.5302 18.5086 38.7374 17.8887 38.7374C16.4459 38.7374 15.7785 37.5208 15.6308 37.2366C15.6124 37.2004 15.6025 37.1604 15.6018 37.1197V36.4662H15.615C15.5967 36.1858 15.6171 35.9042 15.6757 35.6295C15.8366 35.2576 16.1874 35.3452 16.467 35.8287C16.467 35.85 16.4855 35.8739 16.496 35.8951C17.2636 35.3399 18.0417 34.644 18.0417 34.1127C18.0417 33.6983 17.6091 33.0236 17.4588 32.8005C17.4268 32.7528 17.4111 32.6959 17.4139 32.6384L17.7885 25.5354C17.7911 25.4826 17.8093 25.4318 17.8408 25.3894C17.8723 25.3471 17.9155 25.3152 17.9651 25.2978C18.0147 25.2804 18.0683 25.2783 18.1191 25.2918C18.1698 25.3052 18.2155 25.3336 18.2501 25.3733L20.4078 27.8517C20.4415 27.89 20.4855 27.9177 20.5344 27.9314L22.7923 28.5955C22.8298 28.6095 22.8637 28.6319 22.8914 28.661C22.9191 28.6902 22.9398 28.6952 22.952 28.7636C22.9642 28.802 22.9676 28.8427 22.9618 28.8826C22.9561 28.9225 22.9414 28.9606 22.9189 28.9939V28.9939Z" fill="currentColor"/>
<path d="M96.6754 24.7701H96.2365V32.262H90.7899V13.6089L96.2365 5.19971V22.6041C97.3207 21.2918 100.973 16.31 100.973 16.31H107.698L101.322 22.9736L107.917 32.2747H101.038L96.6754 24.7701ZM81.4969 23.547L83.7298 16.361H89.1249L82.8005 32.211C80.9161 36.9762 78.2186 40.1997 74.1916 40.1997C72.6428 40.1997 71.3392 39.8047 70.6552 39.4225L72.8235 36.1098C73.1462 36.148 73.4818 36.1608 73.8173 36.1608C75.6759 36.1608 77.0699 34.377 77.9734 32.262L71.3392 16.361H77.4442L79.8319 23.4578C80.2966 24.8084 80.6322 27.3821 80.6322 27.3821C80.6322 27.3821 81.0581 24.8976 81.4969 23.547ZM65.0407 23.1775C65.0407 21.1007 64.1114 20.1196 62.3432 20.1196C61.4784 20.1196 60.5749 20.3617 59.9554 20.7312V32.262H54.5087V16.5139L59.8392 16.0807L59.7102 18.6544H59.8909C61.0396 17.1254 62.9885 15.966 65.3117 15.966C68.0996 15.966 70.5132 17.6733 70.5132 21.7123V32.262H65.0407V23.1775ZM38.9172 31.4465L39.4077 27.7771C41.1114 28.6052 43.0345 29.0002 44.6479 29.0002C45.8224 29.0002 46.5968 28.6052 46.5968 27.9045C46.5968 25.8914 39.2528 26.3755 39.2528 21.1134C39.2528 17.7498 42.3763 15.9787 46.287 15.9787C48.236 15.9787 50.2494 16.5011 51.553 16.9598L51.0239 20.5656C49.6557 20.0432 47.7971 19.559 46.2483 19.559C45.2932 19.559 44.5188 19.8903 44.5188 20.5019C44.5188 22.4895 52.0177 22.0945 52.0177 27.2292C52.0177 30.6438 48.9459 32.606 44.7382 32.606C42.415 32.606 40.5306 32.211 38.9172 31.4465Z" fill="currentColor"/>
</svg>
