<svg width="1024" height="1024" viewBox="0 0 1024 1024" fill="none" xmlns="http://www.w3.org/2000/svg">
<g clip-path="url(#clip0_341_16236)">
<path d="M211.383 372.741C192.313 363.217 192.177 336.053 211.15 326.338L451.03 203.506C488.955 184.087 533.855 183.861 571.974 202.897L811.313 322.426C830.384 331.95 830.52 359.114 811.547 368.829L571.666 491.661C533.741 511.08 488.841 511.306 450.722 492.269L211.383 372.741Z" fill="currentColor"/>
<path d="M298.704 453.746C290.17 449.484 280.117 449.535 271.627 453.882L212.15 484.338C193.176 494.053 193.313 521.217 212.383 530.741L451.722 650.269C489.841 669.306 534.741 669.08 572.666 649.66L812.547 526.829C831.52 517.114 831.383 489.95 812.313 480.426L751.898 450.254C743.364 445.992 733.311 446.042 724.821 450.39L571.425 528.937C533.5 548.356 488.599 548.582 450.481 529.545L298.704 453.746Z" fill="currentColor"/>
<path d="M545.584 245.025C513.772 241.234 480.653 244.535 451.78 254.673C423.16 264.723 398.604 281.593 384.89 304.342C370.597 328.053 370.018 355.213 383.552 379.357C396.52 402.493 420.606 419.8 448.908 430.291C477.466 440.876 510.481 444.652 542.399 441.33C574.224 438.019 604.361 427.702 627.113 411.031C648.481 395.374 663.457 373.802 665.531 348.923C665.759 346.199 667.967 344 670.701 344H689.135C702.167 344 708.13 327.757 698.192 319.325L653.831 281.685C648.607 277.252 640.941 277.252 635.716 281.685L591.355 319.325C581.418 327.757 587.38 344 600.413 344H617.568C620.403 344 622.703 346.372 622.078 349.137C620.157 357.641 614.102 367.257 601.698 376.346C586.367 387.579 563.934 395.858 537.949 398.561C512.058 401.255 485.73 398.08 463.853 389.971C441.719 381.767 427.51 369.836 421.061 358.332C415.178 347.837 415.305 337.177 421.716 326.542C428.707 314.945 443.527 303.145 466.026 295.245C488.272 287.433 514.739 284.654 540.496 287.723C552.287 289.128 562.984 280.709 564.389 268.918C565.794 257.127 557.375 246.43 545.584 245.025Z" fill="currentColor"/>
<path d="M299.604 611.208C291.07 606.946 281.018 606.997 272.527 611.344L211.999 642.338C193.026 652.053 193.163 679.217 212.233 688.741L451.572 808.269C489.69 827.306 534.59 827.08 572.516 807.66L812.396 684.829C831.37 675.114 831.233 647.95 812.163 638.426L751.847 608.303C743.313 604.041 733.261 604.092 724.77 608.44L572.425 686.448C534.5 705.868 489.599 706.094 451.481 687.057L299.604 611.208Z" fill="currentColor"/>
</g>
<defs>
<clipPath id="clip0_341_16236">
<rect width="1024" height="1024" fill="white"/>
</clipPath>
</defs>
</svg>
