<svg role="img" xmlns="http://www.w3.org/2000/svg" viewBox="0 0 24 24"
  fill="currentColor"
>
  <path
    d="M4.6875 7.3125C2.0987 7.3125 0 9.4112 0 12s2.0987 4.6875 4.6875 4.6875c1.4821 0 2.8027-.6886 3.6617-1.7625l.0015.002c.0265-.0332.0514-.0677.0768-.1017.009-.0118.018-.0236.0268-.0355.009-.012.0183-.0238.027-.036.176-.2303.303-.4317.4228-.7047a4.6657 4.6657 0 0 0 .0797-.1741h.1568c-.034.14-.0816.2773-.1403.4165a8.5776 8.5776 0 0 1-.4594.8488c-.0027.0043-.0048.0081-.0075.0125A4.6875 4.6875 0 0 0 12 16.6875a4.6875 4.6875 0 0 0 3.4666-1.5347c-.0027-.0043-.0047-.0081-.0074-.0124a8.5745 8.5745 0 0 1-.4595-.849c-.0587-.139-.1064-.2764-.1403-.4164h.1568c.0256.0586.0518.1168.0797.1741.1198.273.2468.4744.4227.7048.0088.0121.0182.0238.027.0359.0089.012.018.0237.0269.0355.0254.034.0503.0685.0768.1017l.0016-.002c.859 1.074 2.1795 1.7625 3.6616 1.7625C21.9013 16.6875 24 14.5888 24 12s-2.0987-4.6875-4.6875-4.6875a4.6875 4.6875 0 0 0-3.4811 1.5487c.287.4639.5002.8121.6452 1.17h-.1641c-.2862-.4674-.3844-.6523-.656-.9645-.0003.0002-.0005.0006-.0007.0009-.8591-1.0697-2.177-1.7551-3.6558-1.7551s-2.7967.6854-3.6558 1.755l-.0006-.0008c-.2717.3122-.37.4971-.6561.9645h-.164c.1449-.3579.358-.7061.6451-1.17a4.6875 4.6875 0 0 0-3.4811-1.5487zm0 2.0625c1.4497 0 2.625 1.1753 2.625 2.625s-1.1753 2.625-2.625 2.625-2.625-1.1753-2.625-2.625 1.1753-2.625 2.625-2.625zm7.3125 0c1.4497 0 2.625 1.1753 2.625 2.625S13.4497 14.625 12 14.625 9.375 13.4497 9.375 12c0-.0453.0011-.0903.0034-.135.0703-1.387 1.2172-2.49 2.6216-2.49zm7.3125 0c1.4497 0 2.625 1.1753 2.625 2.625s-1.1753 2.625-2.625 2.625-2.625-1.1753-2.625-2.625 1.1753-2.625 2.625-2.625z"></path>
</svg>