<svg width="54" height="24" viewBox="0 0 54 24" fill="none" xmlns="http://www.w3.org/2000/svg">
<path d="M15.1276 23.942L21.2027 22.4322C21.2027 22.4322 18.5871 4.74835 18.5704 4.62703C18.5538 4.50572 18.4478 4.4384 18.3598 4.43106C18.2725 4.42373 16.5621 4.39773 16.5621 4.39773C16.5621 4.39773 15.5196 3.38523 15.1276 3.00195V23.942Z" fill="currentColor"/>
<path d="M14.4664 2.79999C14.4651 2.80065 14.1978 2.88331 13.7478 3.02262C13.6725 2.77866 13.5619 2.4787 13.4039 2.17742C12.8946 1.20557 12.1488 0.69165 11.2476 0.690317C11.2462 0.690317 11.2456 0.690317 11.2442 0.690317C11.1816 0.690317 11.1196 0.696316 11.0569 0.701649C11.0303 0.669654 11.0036 0.638325 10.9756 0.607663C10.583 0.187729 10.0798 -0.0169056 9.47652 0.00109163C8.3127 0.0344197 7.15355 0.874955 6.21369 2.36805C5.55246 3.41856 5.04921 4.73835 4.90657 5.76019C3.57011 6.17413 2.63559 6.46341 2.61492 6.47008C1.94036 6.68205 1.91903 6.70271 1.83105 7.33861C1.76506 7.8192 0 21.4677 0 21.4677L14.6437 24V2.76999C14.5717 2.77466 14.5071 2.78799 14.4664 2.79999ZM11.0849 3.84716C10.3097 4.08712 9.46385 4.34908 8.61532 4.6117C8.85395 3.69785 9.30654 2.78799 9.86246 2.19142C10.0691 1.96945 10.3584 1.72216 10.701 1.58084C11.0229 2.25274 11.0929 3.20392 11.0849 3.84716ZM9.49918 0.775637C9.77247 0.769638 10.0024 0.829629 10.1991 0.958942C9.88445 1.12225 9.5805 1.35688 9.29521 1.66283C8.55599 2.45604 7.98942 3.68718 7.76345 4.875C7.0589 5.09296 6.36967 5.30693 5.7351 5.5029C6.13571 3.63319 7.70279 0.827629 9.49918 0.775637ZM7.23487 11.4266C7.31352 12.6724 10.591 12.9444 10.775 15.8626C10.9196 18.1582 9.55717 19.7287 7.59415 19.8526C5.23785 20.0013 3.94072 18.6108 3.94072 18.6108L4.43997 16.4865C4.43997 16.4865 5.74577 17.4717 6.79094 17.4057C7.4735 17.3624 7.71746 16.8071 7.6928 16.4145C7.59015 14.7894 4.92123 14.8854 4.75259 12.2152C4.61061 9.9682 6.08638 7.69122 9.34254 7.48592C10.597 7.4066 11.2396 7.72722 11.2396 7.72722L10.495 10.5128C10.495 10.5128 9.66449 10.1348 8.67998 10.1968C7.23553 10.2881 7.2202 11.1987 7.23487 11.4266ZM11.8588 3.60786C11.8501 3.01862 11.7802 2.19875 11.5055 1.49019C12.3887 1.6575 12.8233 2.65668 13.0073 3.25258C12.6667 3.35723 12.2787 3.47721 11.8588 3.60786Z" fill="currentColor"/>
<path d="M30.8618 17.1243C30.2818 17.1243 29.7564 16.9751 29.2858 16.6768C28.8185 16.3752 28.4473 15.9328 28.1722 15.3494C27.9004 14.7628 27.7645 14.0436 27.7645 13.1918C27.7645 12.3168 27.9053 11.5893 28.1871 11.0092C28.4688 10.4259 28.8433 9.99006 29.3107 9.7017C29.7813 9.41004 30.2967 9.2642 30.8568 9.2642C31.2844 9.2642 31.6407 9.33712 31.9257 9.48295C32.2141 9.62547 32.4461 9.80445 32.6217 10.0199C32.8007 10.232 32.9366 10.4408 33.0294 10.6463H33.094V6.81818H35.207V17H33.1189V15.777H33.0294C32.93 15.9891 32.7891 16.1996 32.6068 16.4084C32.4278 16.6139 32.1942 16.7846 31.9058 16.9205C31.6208 17.0563 31.2728 17.1243 30.8618 17.1243ZM31.533 15.4389C31.8743 15.4389 32.1627 15.3461 32.398 15.1605C32.6366 14.9716 32.8189 14.7081 32.9449 14.37C33.0741 14.032 33.1388 13.6359 33.1388 13.1818C33.1388 12.7277 33.0758 12.3333 32.9499 11.9986C32.8239 11.6638 32.6416 11.4053 32.403 11.223C32.1643 11.0407 31.8743 10.9496 31.533 10.9496C31.1849 10.9496 30.8916 11.044 30.653 11.233C30.4143 11.4219 30.2337 11.6837 30.1111 12.0185C29.9884 12.3532 29.9271 12.741 29.9271 13.1818C29.9271 13.6259 29.9884 14.0187 30.1111 14.3601C30.237 14.6982 30.4177 14.9633 30.653 15.1555C30.8916 15.3445 31.1849 15.4389 31.533 15.4389ZM40.4284 17.1491C39.6429 17.1491 38.9667 16.9901 38.4 16.6719C37.8365 16.3504 37.4023 15.8963 37.0974 15.3097C36.7925 14.7197 36.64 14.022 36.64 13.2166C36.64 12.4311 36.7925 11.7417 37.0974 11.1484C37.4023 10.5552 37.8315 10.0928 38.385 9.76136C38.9419 9.42992 39.5948 9.2642 40.3439 9.2642C40.8476 9.2642 41.3166 9.34541 41.7508 9.50781C42.1883 9.6669 42.5695 9.9072 42.8943 10.2287C43.2224 10.5502 43.4776 10.9545 43.6599 11.4418C43.8422 11.9257 43.9333 12.4924 43.9333 13.142V13.7237H37.4852V12.4112H41.9397C41.9397 12.1063 41.8734 11.8362 41.7409 11.6009C41.6083 11.3655 41.4243 11.1816 41.189 11.049C40.957 10.9131 40.6869 10.8452 40.3787 10.8452C40.0572 10.8452 39.7721 10.9197 39.5235 11.0689C39.2783 11.2147 39.086 11.4119 38.9468 11.6605C38.8076 11.9058 38.7364 12.1792 38.7331 12.4808V13.7287C38.7331 14.1065 38.8027 14.433 38.9419 14.7081C39.0844 14.9832 39.2849 15.1953 39.5434 15.3445C39.802 15.4936 40.1085 15.5682 40.4632 15.5682C40.6985 15.5682 40.9139 15.535 41.1095 15.4688C41.305 15.4025 41.4724 15.303 41.6116 15.1705C41.7508 15.0379 41.8569 14.8755 41.9298 14.6832L43.8886 14.8125C43.7892 15.2831 43.5853 15.6941 43.2771 16.0455C42.9722 16.3935 42.5778 16.6652 42.0939 16.8608C41.6133 17.053 41.0581 17.1491 40.4284 17.1491ZM52.2297 9.36364L49.5599 17H47.1736L44.5038 9.36364H46.7411L48.327 14.8274H48.4065L49.9875 9.36364H52.2297Z" fill="currentColor"/>
</svg>
