<svg viewBox="0 0 74 53" xmlns:xlink="http://www.w3.org/1999/xlink" xmlns="http://www.w3.org/2000/svg" width="53" height="53" fill="none"><path fill="#000000" d="M74 26.079v-1.441C74 11.068 57.433 0 37 0S0 11.067 0 24.638v1.441c0 14.402 14.48 26.06 37 26.06 22.656 0 37-11.658 37-26.06Zm-1.67-4.176c-8.038 1.82-14.035 4.462-15.542 5.146-3.51-3.122-11.622-10.3-13.818-11.982-1.252-.96-2.114-1.469-2.867-1.7a4.729 4.729 0 0 0-1.406-.221c-.563 0-1.162.101-1.788.305-1.424.461-2.84 1.598-4.2 2.706l-.073.056c-1.27 1.034-2.595 2.097-3.593 2.328-.436.101-.88.148-1.325.148-1.116 0-2.123-.333-2.495-.823-.063-.083-.018-.212.127-.397l.018-.028 3.085-3.39c2.423-2.466 4.7-4.785 9.962-4.915h.264c3.275 0 6.541 1.497 6.913 1.663 3.067 1.524 6.233 2.3 9.418 2.3 3.312 0 6.732-.83 10.316-2.512 3.766 3.233 6.252 7.104 7.005 11.316ZM37.01 1.45c10.841 0 20.55 3.169 27.073 8.148-3.157 1.386-6.16 2.088-9.064 2.088-2.967 0-5.934-.73-8.819-2.162-.154-.073-3.765-1.81-7.522-1.81h-.299c-4.418.101-6.904 1.7-8.574 3.104-1.624.037-3.03.443-4.282.794-1.116.314-2.078.591-3.013.591-.39 0-1.08-.037-1.143-.037-1.08-.036-6.487-1.385-10.806-3.048 6.515-4.711 15.95-7.668 26.448-7.668ZM9.281 10.106c4.51 1.876 9.99 3.335 11.722 3.446.481.037.998.093 1.515.093 1.153 0 2.296-.324 3.403-.647a26.08 26.08 0 0 1 2.141-.536c-.2.203-.408.407-.608.62l-3.14 3.454c-.244.25-.78.933-.426 1.765.137.332.427.655.826.933.744.508 2.087.859 3.33.859.472 0 .916-.046 1.324-.139 1.316-.295 2.695-1.422 4.156-2.605 1.161-.942 2.822-2.134 4.083-2.485.354-.102.79-.157 1.143-.157.109 0 .2 0 .29.018.835.111 1.643.398 3.094 1.497 2.577 1.968 13.973 12.12 14.082 12.222.009.01.735.647.68 1.709-.027.591-.354 1.118-.907 1.478-.49.314-.989.471-1.497.471-.762 0-1.288-.36-1.325-.388-.045-.037-3.947-3.676-5.38-4.905-.227-.194-.454-.37-.671-.37a.38.38 0 0 0-.3.148c-.227.287.027.675.327.933l4.563 4.665c.01.01.572.545.636 1.257.036.776-.327 1.422-1.08 1.921-.535.36-1.08.545-1.615.545a2.255 2.255 0 0 1-1.298-.406l-.653-.656c-1.198-1.201-2.431-2.439-3.339-3.206-.217-.184-.453-.36-.68-.36a.37.37 0 0 0-.29.13c-.1.12-.173.323.081.674.1.138.227.258.227.258l3.33 3.806c.027.037.69.832.072 1.626l-.118.148c-.1.111-.208.213-.308.305-.572.471-1.325.527-1.624.527-.163 0-.318-.019-.454-.037-.327-.056-.553-.157-.653-.277l-.046-.047c-.18-.194-1.86-1.93-3.248-3.113-.181-.157-.408-.35-.644-.35a.384.384 0 0 0-.3.138c-.271.305.137.766.318.933l2.84 3.187c0 .027-.036.092-.109.194-.1.138-.444.49-1.479.628a2.64 2.64 0 0 1-.38.028c-1.062 0-2.196-.527-2.777-.84a4.406 4.406 0 0 0 .408-1.83c0-2.384-1.896-4.314-4.228-4.314h-.154c.073-1.09-.073-3.141-2.15-4.047-.6-.258-1.189-.397-1.77-.397-.453 0-.889.083-1.297.24-.427-.85-1.143-1.468-2.069-1.792a4.495 4.495 0 0 0-1.524-.268c-.862 0-1.66.259-2.368.776a3.566 3.566 0 0 0-2.785-1.367c-.944 0-1.851.388-2.532 1.063-.88-.684-4.391-2.957-13.773-5.128-.444-.101-1.46-.397-2.105-.59.871-4.306 3.548-8.223 7.513-11.438Zm17.402 24.87-.1-.093h-.1c-.081 0-.172.037-.29.12-.48.342-.935.508-1.406.508-.254 0-.518-.055-.78-.157-2.178-.86-2.006-2.956-1.897-3.584.018-.13-.018-.231-.09-.296l-.155-.13-.145.14a2.23 2.23 0 0 1-1.56.646c-1.244 0-2.26-1.035-2.26-2.3 0-1.266 1.016-2.3 2.26-2.3 1.124 0 2.086.858 2.222 2.004l.082.619.336-.527c.036-.064.952-1.468 2.63-1.468.318 0 .645.055.98.157 1.334.415 1.561 1.653 1.598 2.161.027.296.235.314.272.314.118 0 .2-.073.263-.138a2.258 2.258 0 0 1 1.66-.712c.39 0 .817.093 1.243.287 2.123.933 1.162 3.677 1.153 3.704-.182.453-.191.656-.019.776l.082.037h.064c.09 0 .217-.037.408-.11.29-.102.726-.26 1.134-.26 1.597.02 2.903 1.35 2.903 2.957 0 1.626-1.306 2.947-2.903 2.947a2.901 2.901 0 0 1-2.894-2.818c0-.138-.018-.499-.318-.499-.118 0-.227.074-.354.185-.345.323-.78.656-1.424.656-.29 0-.608-.065-.935-.203-1.651-.684-1.67-1.838-1.606-2.3.028-.102.028-.231-.054-.324ZM1.434 24.618c0-.517.036-1.025.081-1.533.154.037 1.715.416 2.042.49 9.58 2.17 12.747 4.424 13.283 4.85a3.718 3.718 0 0 0-.273 1.404c0 2.014 1.606 3.658 3.593 3.658.218 0 .445-.019.663-.065.3 1.488 1.252 2.605 2.713 3.187a3.5 3.5 0 0 0 1.279.25c.272 0 .544-.037.816-.102.273.693.871 1.561 2.232 2.125a3.73 3.73 0 0 0 1.407.296c.372 0 .744-.065 1.098-.204.644 1.608 2.195 2.68 3.91 2.68a4.172 4.172 0 0 0 3.03-1.312c.681.388 2.124 1.09 3.584 1.09.19 0 .363-.01.545-.037 1.442-.185 2.123-.767 2.431-1.21.055-.074.11-.157.154-.25.345.102.717.185 1.153.185.79 0 1.551-.277 2.314-.84.753-.555 1.288-1.35 1.37-2.024v-.028c.254.056.517.084.77.084.817 0 1.616-.26 2.378-.767 1.479-.989 1.733-2.273 1.706-3.114.263.056.526.084.789.084.762 0 1.515-.231 2.232-.703.916-.59 1.47-1.505 1.551-2.568a3.566 3.566 0 0 0-.49-2.078c2.468-1.081 8.112-3.178 14.753-4.702.028.378.046.766.046 1.154 0 12.795-15.933 23.17-35.576 23.17-19.661.009-35.584-10.375-35.584-23.17Z"></path></svg>