<svg width="1024" height="1024" viewBox="0 0 1024 1024" fill="none" xmlns="http://www.w3.org/2000/svg">
<path d="M100,0 L924,0 A100,100 0 0,1 1024,100 L1024,924 A100,100 0 0,1 924,1024 L100,1024 A100,100 0 0,1 0,924 L0,100 A100,100 0 0,1 100,0 Z" fill="currentColor"/>
<path fill-rule="evenodd" clip-rule="evenodd" d="M472.75 400.75C472.75 377.25 492 368 524 368C570 368 628 382 674 406.75V264.75C623.75 244.75 574.25 237 524.25 237C401.5 237 320 301 320 408C320 574.75 549.75 548.25 549.75 620.25C549.75 648 525.5 657 491.75 657C441.5 657 377.5 636.5 326.75 608.75V752.5C383 776.75 439.75 787 491.75 787C617.5 787 704 724.75 704 616.5C703 436.5 472.75 468.5 472.75 400.75Z" fill="white"/>
</svg>