<svg version="1.2" xmlns="http://www.w3.org/2000/svg" viewBox="0 0 176 222" width="176" height="222">
	<title>icon</title>
	<style>
		.s0 { fill: #000000 } 
		.s1 { fill: #000000 } 
		@media (prefers-color-scheme: dark) {
			.s0 { fill: #ffffff }
		}
	</style>
	<path class="s0" d="m171.1 0.4h-58.3c-1.2 0-2.4 0.5-3.2 1.4l-52.4 52.3q0.8-0.3 1.8-0.3h58.4c2.7 0 4.8 2.1 4.8 4.7v105.2q0 1-0.4 1.8l52.5-52.5c0.9-0.9 1.4-2.1 1.4-3.3v-104.7c0-2.5-2-4.6-4.6-4.6z"/>
	<path class="s1" d="m59 168.4c-2.6 0-4.7-2.1-4.7-4.7v-105.2q0-1 0.4-1.9l-52.6 52.6c-0.8 0.8-1.3 2-1.3 3.2v104.8c0 2.5 2.1 4.5 4.6 4.5h58.3c1.2 0 2.4-0.5 3.2-1.3l52.3-52.3q-0.8 0.3-1.8 0.3h-58.4z"/>
</svg>
