<svg width="960" height="960" viewBox="0 0 960 960" fill="none" xmlns="http://www.w3.org/2000/svg">
<path fill-rule="evenodd" clip-rule="evenodd" d="M115.631 731.755C106.701 721.052 108.654 705.299 119.634 696.632L223.65 614.534C232.723 607.373 245.988 608.99 253.386 617.819C324.037 702.138 399.008 741.172 481.991 741.172C564.399 741.172 637.326 702.69 704.884 619.307C712.134 610.358 725.367 608.507 734.57 615.509L840.007 695.721C851.141 704.192 853.384 719.905 844.642 730.753C744.755 854.698 622.457 920 481.991 920C341.934 920 218.544 855.105 115.631 731.755Z" fill="currentColor"/>
<path fill-rule="evenodd" clip-rule="evenodd" d="M487.026 268.974C483.105 265.561 477.211 265.559 473.287 268.97L247.112 465.569C238.466 473.085 225.241 472.213 217.694 463.629L129.479 363.296C122.037 354.832 122.927 342.053 131.473 334.665L466.465 45.0759C474.295 38.3067 486.022 38.3082 493.85 45.0794L828.916 334.887C837.468 342.283 838.348 355.076 830.887 363.537L742.458 463.819C734.902 472.388 721.685 473.245 713.048 465.728L487.026 268.974Z" fill="currentColor"/>
</svg>
