<svg version="1.1" xmlns="http://www.w3.org/2000/svg" width="400" height="400" viewBox="0 0 400 400">
  <path
    d="M0 0 C0.90943359 0.0932959 1.81886719 0.1865918 2.75585938 0.28271484 C31.61000655 3.55291518 59.91605469 10.98351239 87.25 20.625 C88.93452271 21.21812988 88.93452271 21.21812988 90.65307617 21.82324219 C115.5361531 30.87299028 115.5361531 30.87299028 122.109375 43.12109375 C124.98485252 49.4658974 125.48463246 54.77627492 125.47802734 61.64868164 C125.48474457 62.65589767 125.49146179 63.66311371 125.49838257 64.70085144 C125.51733653 68.02067025 125.52128493 71.34028675 125.5234375 74.66015625 C125.52986529 76.97130923 125.53659363 79.2824614 125.54360962 81.59361267 C125.55557447 86.43295174 125.55929105 91.27221945 125.55810547 96.11157227 C125.55790188 102.31472548 125.58524891 108.5174226 125.61964989 114.72046757 C125.64187225 119.49110522 125.6459445 124.26163209 125.64488602 129.03231621 C125.64724728 131.31968196 125.6561002 133.60705052 125.67155075 135.89436531 C125.69112356 139.09014171 125.68540735 142.2849208 125.67333984 145.48071289 C125.68457886 146.42578705 125.69581787 147.37086121 125.70739746 148.34457397 C125.66653168 152.59861311 125.56481136 154.88996835 123.28344727 158.57844543 C119.85640177 161.72034458 116.6903814 161.59466589 112.1875 161.5 C108.92079925 161.17968222 105.76667769 160.57871686 102.5625 159.875 C101.69004639 159.68969727 100.81759277 159.50439453 99.91870117 159.31347656 C62.97663623 151.17708406 30.35181881 128.73593705 9.8046875 96.86328125 C-6.23043106 71.23807078 -14.81657335 42.02626747 -15 11.6875 C-15.01417969 10.60855469 -15.02835938 9.52960937 -15.04296875 8.41796875 C-14.81067329 5.47687205 -14.51456898 3.88933974 -12.8125 1.5 C-9.07949436 -1.53827755 -4.47941659 -0.47192031 0 0 Z "
    fill="currentColor" transform="translate(225.8125,16.5)" />
  <path
    d="M0 0 C4.04489294 4.85387153 2.16838693 12.04378931 1.66308594 18.00292969 C-2.40438485 61.88274701 -19.36477597 100.087181 -53.46044922 128.94873047 C-71.09730505 143.15139888 -91.52799339 152.4237592 -113.54296875 157.2109375 C-114.549646 157.43483154 -115.55632324 157.65872559 -116.59350586 157.8894043 C-128.83332039 160.37794678 -128.83332039 160.37794678 -134.10546875 158.2734375 C-137.3091449 155.31999482 -138.37338979 153.03677103 -138.61340332 148.79121399 C-138.63712418 146.96683635 -138.63878261 145.14209094 -138.62304688 143.31762695 C-138.63005615 142.31858841 -138.63706543 141.31954987 -138.64428711 140.29023743 C-138.66188508 136.98878131 -138.65023299 133.68818357 -138.63671875 130.38671875 C-138.6394142 128.08611385 -138.64329705 125.78551006 -138.64831543 123.48490906 C-138.65421384 118.66048346 -138.64564011 113.83635405 -138.62695312 109.01196289 C-138.60422786 102.8462133 -138.61724423 96.68116266 -138.64124298 90.51543903 C-138.65574624 85.76172185 -138.65107306 81.00816833 -138.64073181 76.25444603 C-138.63807371 73.98239241 -138.64130183 71.71032367 -138.65065002 69.43828773 C-138.66088272 66.25053644 -138.6452172 63.06389036 -138.62304688 59.8762207 C-138.6311438 58.94755188 -138.63924072 58.01888306 -138.64758301 57.06207275 C-138.52343919 47.35895834 -135.05925931 38.19611279 -128.10546875 31.2734375 C-121.23354556 26.29312833 -113.60197799 23.2516114 -105.66796875 20.3984375 C-104.49492188 19.97208008 -103.321875 19.54572266 -102.11328125 19.10644531 C-14.79736479 -12.13438819 -14.79736479 -12.13438819 0 0 Z "
    fill="currentColor" transform="translate(187.10546875,18.7265625)" />
  <path
    d="M0 0 C1.00426025 0.22260498 2.00852051 0.44520996 3.04321289 0.67456055 C38.2236404 8.79738145 70.42236018 27.03702033 90.25 57.9375 C109.99094624 90.52499142 116.16870111 128.29776247 116.75 165.9375 C116.7960437 167.65598145 116.7960437 167.65598145 116.84301758 169.40917969 C116.84478823 177.18354308 116.84478823 177.18354308 114.03125 180.75 C111.25 181.9375 111.25 181.9375 108.92578125 182.015625 C105.02449607 180.44372032 101.82888456 178.15227464 98.4375 175.6875 C97.69266357 175.15318359 96.94782715 174.61886719 96.18041992 174.06835938 C88.27894351 168.33759991 80.72528808 162.20909088 73.25 155.9375 C72.65622559 155.44282227 72.06245117 154.94814453 71.45068359 154.43847656 C52.8392074 138.90383488 35.10458303 122.16107804 20.25 102.9375 C19.84249512 102.41317383 19.43499023 101.88884766 19.01513672 101.34863281 C-2.41579482 73.58418902 -22.42757949 39.12400255 -23.24609375 3.109375 C-22.75 0.9375 -22.75 0.9375 -21.22265625 -0.859375 C-14.71650979 -4.02508292 -6.7231324 -1.49459836 0 0 Z "
    fill="currentColor" transform="translate(72.75,202.0625)" />
  <path
    d="M0 0 C2.44617953 2.79563375 2.07097822 4.83889938 1.9140625 8.4375 C-3.17644225 52.48594924 -28.24698278 89.76597617 -57.46875 121.75 C-58.68111328 123.11898437 -58.68111328 123.11898437 -59.91796875 124.515625 C-69.92489734 135.70423873 -80.82907724 146.10697921 -92.58203125 155.453125 C-94.79079344 157.21057042 -96.9690873 158.98986719 -99.13671875 160.796875 C-105.9609401 166.46426355 -112.87782526 171.92406789 -120.15625 177 C-120.81520264 177.46583496 -121.47415527 177.93166992 -122.15307617 178.41162109 C-128.61380297 182.82671536 -128.61380297 182.82671536 -132.46875 182.75 C-135.25 181.5625 -135.25 181.5625 -137.46875 178.75 C-138.20092578 174.74571121 -138.07748057 170.80813293 -137.96875 166.75 C-137.95030029 165.55536133 -137.93185059 164.36072266 -137.9128418 163.12988281 C-136.95485457 122.70968332 -129.427837 78.50073801 -102.46875 46.75 C-101.74042969 45.88375 -101.01210937 45.0175 -100.26171875 44.125 C-83.15258768 24.46897551 -27.86313604 -14.10791698 0 0 Z "
    fill="currentColor" transform="translate(348.46875,201.25)" />
</svg>