<svg width="26px" height="26px" viewBox="0 0 58 58" fill="none" xmlns="http://www.w3.org/2000/svg"
  role="img" aria-hidden="true">
  <path fill-rule="evenodd" clip-rule="evenodd"
    d="M0 10C0 4.47715 4.47705 0 9.99976 0H47.9989C53.5216 0 57.9986 4.47715 57.9986 10V42.3189C57.9986 48.0326 50.7684 50.5124 47.2618 46.0014L36.2991 31.8988V49C36.2991 53.9706 32.2698 58 27.2993 58H9.99976C4.47705 58 0 53.5228 0 48V10ZM9.99976 8C8.89522 8 7.99981 8.89543 7.99981 10V48C7.99981 49.1046 8.89522 50 9.99976 50H27.5993C28.1516 50 28.2993 49.5523 28.2993 49V26.0673C28.2993 20.3536 35.5295 17.8738 39.0361 22.3848L49.9988 36.4874V10C49.9988 8.89543 50.1034 8 48.9988 8H9.99976Z"
    fill="currentColor" />
</svg>