<svg width="191" height="191" viewBox="0 0 191 191" fill="none" xmlns="http://www.w3.org/2000/svg">
<g clip-path="url(#clip0_6_4)">
<path d="M95.252 142.873C121.556 142.873 142.879 121.549 142.879 95.245C142.879 68.941 121.556 47.617 95.252 47.617C68.948 47.617 47.625 68.941 47.625 95.245C47.625 121.549 68.948 142.873 95.252 142.873Z" fill="white"/>
<path d="M54.005 119.07L12.765 47.64C4.40234 62.1188 -0.000632996 78.5443 -0.00115962 95.2646C-0.00168625 111.985 4.40025 128.411 12.762 142.89C21.1232 157.369 33.149 169.392 47.6303 177.749C62.1116 186.107 78.5381 190.504 95.258 190.5L136.498 119.07V119.059C132.321 126.303 126.31 132.319 119.07 136.502C111.83 140.685 103.616 142.888 95.2549 142.889C86.8935 142.89 78.6792 140.69 71.438 136.509C64.1969 132.328 58.1843 126.314 54.005 119.072V119.07Z" fill="#229342"/>
<path d="M136.495 119.067L95.256 190.497C111.976 190.499 128.402 186.1 142.882 177.74C157.362 169.38 169.386 157.356 177.745 142.875C186.104 128.394 190.503 111.968 190.5 95.248C190.497 78.5277 186.092 62.1029 177.728 47.625H95.249L95.239 47.632C103.6 47.628 111.815 49.8257 119.058 54.004C126.301 58.1825 132.315 64.1943 136.497 71.435C140.679 78.6758 142.88 86.89 142.88 95.2516C142.88 103.613 140.678 111.827 136.496 119.068L136.495 119.067Z" fill="#FBC116"/>
<path d="M95.252 132.961C116.076 132.961 132.957 116.08 132.957 95.255C132.957 74.43 116.076 57.55 95.252 57.55C74.428 57.55 57.547 74.431 57.547 95.255C57.547 116.079 74.428 132.961 95.252 132.961Z" fill="#1A73E8"/>
<path d="M95.252 47.628H177.731C169.373 33.1467 157.35 21.121 142.87 12.76C128.39 4.39957 111.965 -0.00126908 95.245 2.74515e-07C78.5251 0.000833783 62.1002 4.40411 47.622 12.767C33.1435 21.1295 21.1219 33.1566 12.766 47.639L54.006 119.069L54.017 119.075C49.8328 111.836 47.6285 103.622 47.6259 95.2605C47.6232 86.8989 49.8223 78.684 54.002 71.442C58.1811 64.1995 64.194 58.1854 71.4356 54.0047C78.6773 49.8241 86.8922 47.6244 95.254 47.627L95.252 47.628Z" fill="#E33B2E"/>
</g>
<defs>
<clipPath id="clip0_6_4">
<rect width="190.5" height="190.5" fill="white"/>
</clipPath>
</defs>
</svg>
