<svg xmlns="http://www.w3.org/2000/svg" id="Logos" viewBox="0 0 65.97 65.97">
  <defs>
    <style>
      .cls-1 {
        fill: currentColor;
        stroke-width: 0px;
      }
    </style>
  </defs>
  <path class="cls-1" d="M15.17,15.95l18.2,35.4L51.77,15.95H15.17ZM30.57,30.05h-2.9v-2.9h2.9v2.9ZM30.57,25.65h-2.9v-2.9h2.9v2.9ZM34.87,34.35h-2.9v-2.9h2.9v2.9ZM34.87,30.05h-2.9v-2.9h2.9v2.9ZM34.87,25.65h-2.9v-2.9h2.9v2.9ZM39.27,30.05h-2.9v-2.9h2.9v2.9ZM36.37,25.65v-2.9h2.9v2.9h-2.9Z"/>
  <path class="cls-1" d="M57.17,65.97H8.8c-1.56,0-2.7,0-3.61-.07-.96-.08-1.62-.24-2.18-.52-1.04-.53-1.87-1.36-2.4-2.4-.29-.57-.45-1.22-.52-2.18-.07-.92-.07-2.05-.07-3.61V8.8c0-1.56,0-2.69.07-3.61.08-.96.24-1.62.52-2.18C1.13,1.96,1.96,1.13,3,.6c.57-.29,1.22-.45,2.18-.52.92-.07,2.05-.07,3.61-.07h48.38c1.56,0,2.69,0,3.61.07.96.08,1.62.24,2.18.52,1.04.53,1.87,1.36,2.4,2.4.29.57.45,1.22.52,2.18.07.92.07,2.05.07,3.61v48.38c0,1.56,0,2.7-.07,3.61-.08.97-.24,1.62-.52,2.18-.53,1.04-1.36,1.87-2.4,2.4-.57.29-1.22.45-2.18.52-.92.07-2.05.07-3.61.07ZM8.8,2.75c-1.5,0-2.58,0-3.39.07-.56.05-.94.12-1.16.23-.52.27-.94.68-1.2,1.2-.11.22-.19.6-.23,1.16-.07.81-.07,1.89-.07,3.39v48.38c0,1.44,0,2.58.07,3.39.05.56.12.94.23,1.16.27.52.68.94,1.2,1.2.22.11.6.19,1.16.23.8.07,1.89.07,3.39.07h48.38c1.5,0,2.58,0,3.39-.07.56-.05.94-.12,1.16-.23.52-.27.94-.68,1.2-1.2.11-.22.19-.6.23-1.16.07-.8.07-1.89.07-3.39V8.8c0-1.5,0-2.58-.07-3.39-.05-.56-.12-.94-.23-1.16-.27-.52-.68-.94-1.2-1.2-.22-.11-.6-.19-1.16-.23-.81-.07-1.94-.07-3.39-.07H8.8Z"/>
</svg>
